<svg width="60" height="60" viewBox="0 0 60 60" fill="none" xmlns="http://www.w3.org/2000/svg">
<rect width="60" height="60" rx="8" fill="#DCF7F4"/>
<path fill-rule="evenodd" clip-rule="evenodd" d="M49 30C49 40.4934 40.4934 49 30 49C19.5066 49 11 40.4934 11 30C11 19.5066 19.5066 11 30 11C40.4934 11 49 19.5066 49 30ZM30.6808 25.0266C28.8328 25.7952 25.1393 27.3862 19.6004 29.7994C18.701 30.157 18.2298 30.5069 18.1869 30.8491C18.1144 31.4273 18.8386 31.655 19.8246 31.965C19.9587 32.0072 20.0977 32.0509 20.2402 32.0972C21.2103 32.4126 22.5152 32.7815 23.1936 32.7962C23.809 32.8094 24.4958 32.5557 25.2541 32.0351C30.4293 28.5417 33.1007 26.776 33.2684 26.7379C33.3867 26.711 33.5507 26.6773 33.6618 26.776C33.7729 26.8748 33.762 27.0618 33.7502 27.1119C33.6785 27.4177 30.8361 30.0603 29.3652 31.4278C28.9066 31.8541 28.5814 32.1565 28.5149 32.2255C28.3659 32.3802 28.2141 32.5266 28.0682 32.6672C27.167 33.536 26.4911 34.1876 28.1056 35.2515C28.8815 35.7628 29.5024 36.1856 30.1218 36.6074C30.7982 37.0681 31.4729 37.5275 32.3458 38.0997C32.5682 38.2455 32.7806 38.397 32.9875 38.5444C33.7747 39.1057 34.4819 39.6098 35.3557 39.5294C35.8634 39.4827 36.3878 39.0053 36.6542 37.5815C37.2836 34.2166 38.5208 26.9258 38.8068 23.9215C38.8318 23.6582 38.8003 23.3214 38.775 23.1735C38.7497 23.0256 38.6968 22.8149 38.5046 22.659C38.2769 22.4742 37.9255 22.4353 37.7683 22.4381C37.0537 22.4506 35.9573 22.8319 30.6808 25.0266Z" fill="#27ACA1"/>
</svg>
