<svg width="60" height="60" viewBox="0 0 60 60" fill="none" xmlns="http://www.w3.org/2000/svg">
<rect width="60" height="60" rx="8" fill="#DCF7F4"/>
<path fill-rule="evenodd" clip-rule="evenodd" d="M14.5306 14.5306C12 17.0612 12 21.1341 12 29.28V30.72C12 38.8659 12 42.9388 14.5306 45.4694C17.0612 48 21.1341 48 29.28 48H30.72C38.8659 48 42.9388 48 45.4694 45.4694C48 42.9388 48 38.8659 48 30.72V29.28C48 21.1341 48 17.0612 45.4694 14.5306C42.9388 12 38.8659 12 30.72 12H29.28C21.1341 12 17.0612 12 14.5306 14.5306ZM18.0751 22.9501C18.27 32.3101 22.95 37.935 31.155 37.935H31.6201V32.58C34.6351 32.88 36.915 35.0851 37.8299 37.935H42.0901C40.9201 33.6751 37.8449 31.32 35.9249 30.42C37.8449 29.3101 40.5449 26.6101 41.1899 22.9501H37.3198C36.4798 25.9201 33.9901 28.62 31.6201 28.875V22.9501H27.75V33.33C25.35 32.7301 22.32 29.8201 22.185 22.9501H18.0751Z" fill="#27ACA1"/>
</svg>
