<svg width="60" height="60" viewBox="0 0 60 60" fill="none" xmlns="http://www.w3.org/2000/svg">
<rect width="60" height="60" rx="8" fill="#DCF7F4"/>
<path fill-rule="evenodd" clip-rule="evenodd" d="M33.4714 33.4714C30.6429 36.39 30.45 40.0286 30.1929 48C37.6243 48 42.7543 47.9743 45.4029 45.4029C47.9743 42.7543 48 37.38 48 30.1929C40.0286 30.45 36.39 30.6429 33.4714 33.4714ZM29.8071 48C22.3757 48 17.2457 47.9743 14.5971 45.4029C12.0257 42.7543 12 37.38 12 30.1929C19.9714 30.45 23.61 30.6429 26.5286 33.4714C29.3571 36.39 29.55 40.0286 29.8071 48ZM26.5286 26.5286C23.61 29.3571 19.9714 29.55 12 29.8071C12 22.62 12.0257 17.2457 14.5971 14.5971C17.2457 12.0257 22.3886 12 29.8071 12C29.55 19.9714 29.3571 23.61 26.5286 26.5286ZM30.1929 12C30.4371 19.9714 30.6429 23.61 33.4714 26.5286C36.39 29.3571 40.0286 29.55 48 29.8071C48 22.62 47.9743 17.2457 45.4029 14.5971C42.7543 12.0257 37.6243 12 30.1929 12Z" fill="#27ACA1"/>
</svg>
