<svg width="60" height="60" viewBox="0 0 60 60" fill="none" xmlns="http://www.w3.org/2000/svg">
<rect width="60" height="60" rx="8" fill="#DCF7F4"/>
<path d="M49.1761 20.3822C48.7148 18.6689 47.3639 17.318 45.6506 16.8567C42.5205 16 29.9999 16 29.9999 16C29.9999 16 17.4794 16 14.3492 16.8237C12.6689 17.285 11.285 18.6689 10.8237 20.3822C10 23.5123 10 30.0032 10 30.0032C10 30.0032 10 36.5271 10.8237 39.6243C11.285 41.3376 12.6359 42.6885 14.3492 43.1498C17.5123 44.0065 29.9999 44.0065 29.9999 44.0065C29.9999 44.0065 42.5205 44.0065 45.6506 43.1828C47.3639 42.7215 48.7148 41.3706 49.1761 39.6572C49.9998 36.5271 49.9998 30.0362 49.9998 30.0362C49.9998 30.0362 50.0328 23.5123 49.1761 20.3822ZM26.0131 35.9999V24.0066L36.4249 30.0032L26.0131 35.9999Z" fill="#27ACA1"/>
</svg>
